<svg xmlns="http://www.w3.org/2000/svg" width="26" height="18" viewBox="0 0 26 18">
  <metadata><?xpacket begin="﻿" id="W5M0MpCehiHzreSzNTczkc9d"?>
<x:xmpmeta xmlns:x="adobe:ns:meta/" x:xmptk="Adobe XMP Core 5.6-c138 79.159824, 2016/09/14-01:09:01        ">
   <rdf:RDF xmlns:rdf="http://www.w3.org/1999/02/22-rdf-syntax-ns#">
      <rdf:Description rdf:about=""/>
   </rdf:RDF>
</x:xmpmeta>
                                                                                                    
                                                                                                    
                                                                                                    
                                                                                                    
                                                                                                    
                                                                                                    
                                                                                                    
                                                                                                    
                                                                                                    
                                                                                                    
                                                                                                    
                                                                                                    
                                                                                                    
                                                                                                    
                                                                                                    
                                                                                                    
                                                                                                    
                                                                                                    
                                                                                                    
                                                                                                    
                           
<?xpacket end="w"?></metadata>
<defs>
    <style>
      .cls-1 {
        fill: #fff;
        fill-rule: evenodd;
      }
    </style>
  </defs>
  <path id="Shape_15_copy" data-name="Shape 15 copy" class="cls-1" d="M1227,2427.3a6.313,6.313,0,0,1-2.95-.3,3.153,3.153,0,0,0,2.83-1.69,4.635,4.635,0,0,1-3.06.34c-0.05-.21-0.1-0.42-0.15-0.6-0.68-2.54-3.04-4.59-5.51-4.34,0.2-.08.4-0.15,0.61-0.22,0.27-.1,1.86-0.36,1.61-0.93-0.21-.49-2.16.38-2.53,0.49a1.9,1.9,0,0,0,1.37-1.05,3.839,3.839,0,0,0-2.03.96,1.328,1.328,0,0,0,.39-0.77c-1.98,1.27-3.13,3.83-4.07,6.31a9.5,9.5,0,0,0-1.97-1.59,52.417,52.417,0,0,0-6.67-2.95,3.57,3.57,0,0,0,2.22,3.29,5.378,5.378,0,0,0-1.59.19c0.22,1.17.94,2.14,2.91,2.6a2.4,2.4,0,0,0-1.79.71,3.042,3.042,0,0,0,3.21,1.58c-2,.86-0.82,2.46.81,2.22a6.868,6.868,0,0,1-9.65.26c6.55,8.97,20.78,5.3,22.9-3.33A3.977,3.977,0,0,0,1227,2427.3Z" transform="translate(-1201 -2419)"/>
</svg>
