<svg xmlns="http://www.w3.org/2000/svg" width="13" height="9" viewBox="0 0 13 9">
  <metadata><?xpacket begin="﻿" id="W5M0MpCehiHzreSzNTczkc9d"?>
<x:xmpmeta xmlns:x="adobe:ns:meta/" x:xmptk="Adobe XMP Core 5.6-c138 79.159824, 2016/09/14-01:09:01        ">
   <rdf:RDF xmlns:rdf="http://www.w3.org/1999/02/22-rdf-syntax-ns#">
      <rdf:Description rdf:about=""/>
   </rdf:RDF>
</x:xmpmeta>
                                                                                                    
                                                                                                    
                                                                                                    
                                                                                                    
                                                                                                    
                                                                                                    
                                                                                                    
                                                                                                    
                                                                                                    
                                                                                                    
                                                                                                    
                                                                                                    
                                                                                                    
                                                                                                    
                                                                                                    
                                                                                                    
                                                                                                    
                                                                                                    
                                                                                                    
                                                                                                    
                           
<?xpacket end="w"?></metadata>
<defs>
    <style>
      .cls-1 {
        fill: #fff;
        fill-rule: evenodd;
      }
    </style>
  </defs>
  <path class="cls-1" d="M853,3617.15a3.09,3.09,0,0,1-1.473-.15,1.563,1.563,0,0,0,1.416-.85,2.264,2.264,0,0,1-1.532.17q-0.035-.15-0.072-0.3a2.793,2.793,0,0,0-2.756-2.16l0.3-.12c0.135-.05.932-0.18,0.807-0.46-0.106-.25-1.081.19-1.264,0.25a0.967,0.967,0,0,0,.685-0.53,1.964,1.964,0,0,0-1.016.48,0.686,0.686,0,0,0,.2-0.39,6.3,6.3,0,0,0-2.035,3.16,4.511,4.511,0,0,0-.985-0.79,23.986,23.986,0,0,0-3.336-1.48,1.773,1.773,0,0,0,1.112,1.64,2.742,2.742,0,0,0-.8.1,1.623,1.623,0,0,0,1.455,1.3,1.192,1.192,0,0,0-.891.35,1.5,1.5,0,0,0,1.6.79c-1,.43-0.407,1.24.4,1.12a3.446,3.446,0,0,1-4.823.13c3.274,4.48,10.391,2.65,11.452-1.67A1.962,1.962,0,0,0,853,3617.15Z" transform="translate(-840 -3613)"/>
</svg>
